<?xml version="1.0" encoding="UTF-8"?><svg xmlns="http://www.w3.org/2000/svg" viewBox="0 0 36 36">
 <g id="change1_1"><path d="m22.494 5.344c-0.687 0-1.352 0.066-1.991 0.177-0.819-0.104-2.74-0.231-3.591-0.231-8.473 0-15.886 3.177-15.886 14.298 0 9.036 7.049 16.361 16.976 16.361s17.974-7.325 17.974-16.361c-0.001-11.249-9.386-14.244-13.482-14.244z" fill="#DD2E44"/></g>
 <g id="change2_1"><path d="m8.439 0.091c1.637 1.636 2.77 2.266 3.274 4.91 0.298 1.564 2.266 1.51 2.266 1.51s-3.903 1.763-5.54 3.4 4.91-1.637 6.547-1.637c0 0 3.273 1.637 3.273 3.273 0 0 0-3.273-1.636-3.273 0 0 4.909 0 4.909 3.273 0 0 0-4.91-1.637-4.91 0 0 4.911-1.636 6.548 0 0 0-1.686-1.72-4.911-1.636 0 0 1.638-1.637 4.911-1.637 0 0-5.288-1.511-6.925 1.763 0 0-1.385-1.385 1.385-4.155 0 0-4.28 0.755-4.28 4.029 0 0-1.552-0.04-2.644-1.259-2.141-2.392-5.54-3.651-5.54-3.651z" fill="#77B255"/></g>
</svg>